<svg width="32" height="32" viewBox="0 0 32 32" fill="none" xmlns="http://www.w3.org/2000/svg">
<rect width="32" height="32" fill="#141414"/>
<path d="M14.0943 5.48005C13.9852 5.47977 13.8779 5.50809 13.7832 5.56218C13.6885 5.61627 13.6096 5.69425 13.5545 5.78833L7.22678 16.4819C7.17115 16.5768 7.1416 16.6847 7.14112 16.7947C7.14064 16.9047 7.16925 17.0129 7.22406 17.1083C7.27886 17.2037 7.3579 17.2829 7.45318 17.3378C7.54845 17.3928 7.65657 17.4216 7.76657 17.4214H12.4956L10.3218 25.9143C10.2871 26.047 10.2971 26.1873 10.3502 26.3137C10.4033 26.4401 10.4966 26.5455 10.6156 26.6136C10.7345 26.6817 10.8726 26.7087 11.0085 26.6904C11.1444 26.6722 11.2704 26.6097 11.3672 26.5126L24.677 13.2309C24.7638 13.1436 24.8229 13.0324 24.8466 12.9115C24.8704 12.7906 24.8578 12.6654 24.8105 12.5516C24.7632 12.4378 24.6833 12.3406 24.5808 12.2722C24.4783 12.2038 24.3579 12.1672 24.2346 12.1672H18.1884L21.7428 6.43292C21.8016 6.33817 21.8339 6.22941 21.8364 6.11793C21.8389 6.00646 21.8115 5.89636 21.757 5.79908C21.7025 5.7018 21.6229 5.6209 21.5266 5.56479C21.4302 5.50868 21.3206 5.47942 21.2091 5.48005H14.0943Z" fill="#F3CB4D"/>
</svg>
